<?xml version="1.0" encoding="utf-8"?>
<!-- Generator: Adobe Illustrator 19.1.0, SVG Export Plug-In . SVG Version: 6.00 Build 0)  -->
<!DOCTYPE svg PUBLIC "-//W3C//DTD SVG 1.1//EN" "http://www.w3.org/Graphics/SVG/1.1/DTD/svg11.dtd">
<svg version="1.1" id="Layer_1" xmlns="http://www.w3.org/2000/svg" xmlns:xlink="http://www.w3.org/1999/xlink" x="0px" y="0px"
	 width="40px" height="40px" viewBox="0 0 40 40" style="enable-background:new 0 0 40 40;" xml:space="preserve">
<style type="text/css">
	.st0{fill:#6c8fe0;stroke:#6c8fe0;stroke-miterlimit:10;}
</style>
<g>
	<path class="st0" d="M20,32c-6.8,0-12.3-5.4-12.3-12c0-6.6,5.5-12,12.3-12c6.7,0,12.2,5.4,12.2,12C32.3,26.6,26.7,32,20,32z
		 M14.2,14.3c-1.1-0.4-2.1-0.8-3-1.4c-1.6,1.9-2.5,4.2-2.7,6.7h4.6C13.3,17.6,13.6,15.8,14.2,14.3z M14.2,25.7
		c-0.6-1.6-0.9-3.3-0.9-5.3H8.6c0.1,2.5,1.1,4.8,2.6,6.7C12.1,26.5,13.1,26.1,14.2,25.7z M18.2,9c-2.5,0.4-4.7,1.6-6.4,3.2
		c0.8,0.5,1.7,0.9,2.7,1.3C15.4,11.6,16.6,10.1,18.2,9z M14.5,26.4c-1,0.3-1.9,0.8-2.7,1.3c1.7,1.7,3.9,2.9,6.4,3.3
		C16.6,29.9,15.4,28.4,14.5,26.4z M19.6,15.2c-1.6,0-3.2-0.3-4.6-0.6c-0.6,1.5-0.9,3.2-0.9,5h5.5V15.2z M19.6,24.8v-4.3h-5.5
		c0,1.9,0.4,3.5,0.9,5C16.4,25,17.9,24.8,19.6,24.8z M19.6,25.6c-1.5,0-3,0.3-4.3,0.6c0.9,2.1,2.4,3.7,4.3,4.7V25.6z M19.6,9.1
		c-1.8,1-3.3,2.6-4.3,4.7c1.3,0.4,2.7,0.5,4.3,0.6V9.1z M24.7,13.8c-0.9-2.1-2.4-3.7-4.3-4.7v5.3C22,14.3,23.4,14.1,24.7,13.8z
		 M25.1,14.5c-1.4,0.4-3,0.6-4.6,0.7v4.4H26C26,17.7,25.6,16,25.1,14.5z M26,20.4h-5.5v4.3c1.6,0,3.2,0.3,4.6,0.7
		C25.6,24,26,22.3,26,20.4z M24.8,26.2c-1.3-0.3-2.7-0.5-4.3-0.6v5.3C22.3,29.9,23.8,28.3,24.8,26.2z M28.2,27.7
		c-0.8-0.5-1.7-0.9-2.7-1.3c-0.9,1.9-2.1,3.5-3.7,4.5C24.4,30.6,26.6,29.4,28.2,27.7z M28.2,12.2c-1.7-1.7-3.9-2.9-6.3-3.2
		c1.5,1.1,2.8,2.6,3.7,4.5C26.5,13.2,27.4,12.8,28.2,12.2z M28.8,12.9c-0.9,0.5-1.8,1-2.9,1.4c0.6,1.6,0.9,3.4,1,5.3h4.6
		C31.3,17.1,30.4,14.7,28.8,12.9z M31.4,20.4h-4.6c0,1.9-0.4,3.7-1,5.3c1.1,0.4,2.1,0.8,3,1.4C30.4,25.3,31.3,22.9,31.4,20.4z"/>
</g>
<g>
</g>
<g>
</g>
<g>
</g>
<g>
</g>
<g>
</g>
<g>
</g>
<g>
</g>
<g>
</g>
<g>
</g>
<g>
</g>
<g>
</g>
<g>
</g>
<g>
</g>
<g>
</g>
<g>
</g>
</svg>
