<?xml version="1.0" encoding="utf-8"?>
<!-- Generator: Adobe Illustrator 19.1.0, SVG Export Plug-In . SVG Version: 6.00 Build 0)  -->
<!DOCTYPE svg PUBLIC "-//W3C//DTD SVG 1.1//EN" "http://www.w3.org/Graphics/SVG/1.1/DTD/svg11.dtd">
<svg version="1.1" id="Layer_1" xmlns="http://www.w3.org/2000/svg" xmlns:xlink="http://www.w3.org/1999/xlink" x="0px" y="0px"
	 width="256px" height="40px" viewBox="0 0 256 40" style="enable-background:new 0 0 256 40;" xml:space="preserve">
<style type="text/css">
	.st0{fill:#6c8fe0;stroke:#6c8fe0;stroke-miterlimit:10;}
	path{fill:#6c8fe0;}
</style>
<g>
	<g>
		<path class="st0" d="M15.3,31C8.5,31,3,25.5,3,18.9c0-6.6,5.5-12,12.3-12c6.7,0,12.2,5.4,12.2,12C27.6,25.5,22,31,15.3,31z
			 M9.5,13.3c-1.1-0.4-2.1-0.8-3-1.4C4.9,13.7,4,16,3.9,18.5h4.6C8.5,16.5,8.9,14.8,9.5,13.3z M9.4,24.6c-0.6-1.6-0.9-3.3-0.9-5.3
			H3.9C4,21.9,4.9,24.2,6.5,26C7.4,25.5,8.4,25,9.4,24.6z M13.5,8C11,8.3,8.8,9.5,7.1,11.2c0.8,0.5,1.7,0.9,2.7,1.3
			C10.7,10.6,11.9,9,13.5,8z M9.8,25.4c-1,0.3-1.9,0.8-2.7,1.3c1.7,1.7,3.9,2.9,6.4,3.3C11.9,28.9,10.7,27.3,9.8,25.4z M14.9,14.1
			c-1.6,0-3.2-0.3-4.6-0.6c-0.6,1.5-0.9,3.2-0.9,5h5.5V14.1z M14.9,23.7v-4.3H9.4c0,1.9,0.4,3.5,0.9,5C11.7,24,13.2,23.8,14.9,23.7z
			 M14.9,24.6c-1.5,0-3,0.3-4.3,0.6c0.9,2.1,2.4,3.7,4.3,4.7V24.6z M14.9,8c-1.8,1-3.3,2.6-4.3,4.7c1.3,0.4,2.7,0.5,4.3,0.6V8z
			 M20,12.7C19.1,10.6,17.6,9,15.8,8v5.3C17.3,13.3,18.7,13.1,20,12.7z M20.4,13.5c-1.4,0.4-3,0.6-4.6,0.7v4.4h5.5
			C21.3,16.7,20.9,14.9,20.4,13.5z M21.3,19.4h-5.5v4.3c1.6,0,3.2,0.3,4.6,0.7C20.9,22.9,21.3,21.2,21.3,19.4z M20.1,25.1
			c-1.3-0.3-2.7-0.5-4.3-0.6v5.3C17.6,28.9,19.1,27.2,20.1,25.1z M23.5,26.7c-0.8-0.5-1.7-0.9-2.7-1.3c-0.9,1.9-2.1,3.5-3.7,4.5
			C19.7,29.6,21.9,28.4,23.5,26.7z M23.5,11.2c-1.7-1.7-3.9-2.9-6.3-3.2c1.5,1.1,2.8,2.6,3.7,4.5C21.8,12.1,22.7,11.7,23.5,11.2z
			 M24.1,11.8c-0.9,0.5-1.8,1-2.9,1.4c0.6,1.6,0.9,3.4,1,5.3h4.6C26.6,16,25.6,13.7,24.1,11.8z M26.7,19.4h-4.6c0,1.9-0.4,3.7-1,5.3
			c1.1,0.4,2.1,0.8,3,1.4C25.6,24.2,26.6,21.9,26.7,19.4z"/>
	</g>
	<g>
		<path d="M45,27c1.5,0,2.7-0.3,3.4-0.8s1-1.2,1-2.2c0-0.6-0.1-1-0.4-1.4c-0.2-0.4-0.6-0.8-1-1.1c-0.4-0.3-1-0.6-1.6-0.9
			c-0.6-0.3-1.4-0.5-2.2-0.8c-0.8-0.3-1.6-0.6-2.4-0.9c-0.8-0.3-1.4-0.8-2-1.3c-0.6-0.5-1-1.1-1.4-1.8c-0.4-0.7-0.5-1.6-0.5-2.6
			c0-2.1,0.7-3.7,2.2-4.9c1.5-1.2,3.5-1.8,6-1.8c1.5,0,2.8,0.2,3.9,0.5c1.1,0.3,2,0.7,2.7,1l-1.3,3.4c-0.8-0.4-1.6-0.7-2.5-1
			c-0.9-0.2-1.9-0.3-2.8-0.3c-1.2,0-2,0.2-2.7,0.7s-1,1.1-1,2c0,0.5,0.1,0.9,0.3,1.3c0.2,0.4,0.5,0.7,0.9,1c0.4,0.3,0.9,0.6,1.4,0.8
			c0.5,0.2,1.1,0.5,1.7,0.7c1.1,0.4,2.1,0.8,3,1.2c0.9,0.4,1.6,0.9,2.2,1.5s1.1,1.2,1.4,2c0.3,0.8,0.5,1.7,0.5,2.8
			c0,2.1-0.8,3.7-2.3,4.8c-1.5,1.1-3.7,1.7-6.6,1.7c-1,0-1.9-0.1-2.7-0.2c-0.8-0.1-1.5-0.3-2.1-0.4s-1.2-0.4-1.6-0.5
			c-0.5-0.2-0.8-0.4-1.1-0.5l1.3-3.4c0.6,0.3,1.4,0.7,2.5,1C42.3,26.9,43.6,27,45,27z"/>
		<path d="M73.4,21.5c0,1.3-0.2,2.5-0.5,3.7c-0.4,1.1-0.9,2.1-1.5,2.9c-0.7,0.8-1.5,1.4-2.5,1.9c-1,0.4-2.1,0.7-3.3,0.7
			c-0.8,0-1.6-0.1-2.3-0.3c-0.7-0.2-1.3-0.4-1.7-0.7v6.7h-4.1V13.3c0.8-0.2,1.9-0.4,3.1-0.6s2.5-0.3,3.9-0.3c1.4,0,2.7,0.2,3.8,0.6
			c1.1,0.4,2,1,2.8,1.8c0.8,0.8,1.4,1.7,1.8,2.9C73.2,18.8,73.4,20.1,73.4,21.5z M69.2,21.5c0-1.8-0.4-3.2-1.2-4.2
			c-0.8-1-2.2-1.5-4-1.5c-0.4,0-0.8,0-1.2,0c-0.4,0-0.8,0.1-1.2,0.2v9.9c0.4,0.2,0.8,0.5,1.4,0.7c0.6,0.2,1.2,0.3,1.9,0.3
			c1.5,0,2.6-0.5,3.3-1.5C68.9,24.6,69.2,23.2,69.2,21.5z"/>
		<path d="M83.3,12.4c1.4,0,2.5,0.2,3.4,0.5c0.9,0.3,1.7,0.8,2.2,1.4c0.6,0.6,0.9,1.3,1.2,2.2c0.2,0.9,0.4,1.8,0.4,2.8v10.5
			c-0.6,0.1-1.6,0.3-2.9,0.5c-1.3,0.2-2.7,0.3-4.3,0.3c-1.1,0-2-0.1-2.9-0.3c-0.9-0.2-1.6-0.5-2.3-1c-0.6-0.4-1.1-1-1.5-1.7
			s-0.5-1.6-0.5-2.6c0-1,0.2-1.8,0.6-2.5c0.4-0.7,0.9-1.2,1.6-1.7s1.5-0.7,2.4-0.9c0.9-0.2,1.8-0.3,2.8-0.3c0.5,0,0.9,0,1.4,0.1
			c0.5,0.1,1,0.1,1.6,0.3v-0.7c0-0.5-0.1-0.9-0.2-1.3c-0.1-0.4-0.3-0.8-0.6-1.1c-0.3-0.3-0.7-0.6-1.1-0.7c-0.5-0.2-1-0.3-1.7-0.3
			c-0.9,0-1.8,0.1-2.6,0.2c-0.8,0.1-1.4,0.3-1.9,0.5l-0.5-3.3c0.5-0.2,1.3-0.4,2.3-0.5C81.1,12.4,82.2,12.4,83.3,12.4z M83.7,27.3
			c1.3,0,2.2-0.1,2.9-0.2v-4.4c-0.2-0.1-0.6-0.1-1-0.2c-0.4-0.1-0.9-0.1-1.4-0.1c-0.5,0-0.9,0-1.4,0.1c-0.5,0.1-0.9,0.2-1.3,0.4
			c-0.4,0.2-0.7,0.4-0.9,0.7c-0.2,0.3-0.3,0.7-0.3,1.2c0,1,0.3,1.6,0.9,2C81.8,27.1,82.6,27.3,83.7,27.3z"/>
		<path d="M94.2,21.5c0-1.3,0.2-2.5,0.6-3.6c0.4-1.1,1-2.1,1.7-2.9c0.8-0.8,1.7-1.5,2.8-1.9c1.1-0.5,2.3-0.7,3.7-0.7
			c1.7,0,3.3,0.3,4.7,0.9l-0.9,3.3c-0.5-0.2-1-0.4-1.6-0.5s-1.2-0.2-1.9-0.2c-1.6,0-2.8,0.5-3.7,1.5c-0.8,1-1.3,2.4-1.3,4.2
			c0,1.7,0.4,3.1,1.2,4.1c0.8,1,2.1,1.5,4,1.5c0.7,0,1.4-0.1,2.1-0.2s1.3-0.3,1.8-0.5l0.6,3.3c-0.5,0.2-1.1,0.4-2,0.6
			c-0.9,0.2-1.9,0.3-2.8,0.3c-1.5,0-2.8-0.2-3.9-0.7c-1.1-0.5-2-1.1-2.8-1.9c-0.7-0.8-1.3-1.8-1.6-2.9C94.4,24,94.2,22.8,94.2,21.5z
			"/>
		<path d="M109.9,21.5c0-1.5,0.2-2.9,0.7-4c0.5-1.2,1.1-2.1,1.8-2.9c0.8-0.8,1.6-1.3,2.6-1.7c1-0.4,2-0.6,3-0.6
			c2.4,0,4.3,0.7,5.7,2.2c1.4,1.5,2,3.7,2,6.6c0,0.2,0,0.5,0,0.7c0,0.3,0,0.5-0.1,0.7h-11.7c0.1,1.4,0.6,2.5,1.5,3.2
			c0.9,0.8,2.2,1.1,3.9,1.1c1,0,1.9-0.1,2.7-0.3c0.8-0.2,1.5-0.4,1.9-0.6l0.5,3.3c-0.2,0.1-0.5,0.2-0.9,0.3
			c-0.4,0.1-0.8,0.2-1.4,0.3c-0.5,0.1-1.1,0.2-1.6,0.2c-0.6,0.1-1.2,0.1-1.8,0.1c-1.6,0-2.9-0.2-4.1-0.7s-2.1-1.1-2.8-1.9
			c-0.7-0.8-1.3-1.8-1.7-2.9C110.1,24.1,109.9,22.9,109.9,21.5z M121.8,19.8c0-0.6-0.1-1.1-0.2-1.6c-0.2-0.5-0.4-0.9-0.7-1.3
			c-0.3-0.4-0.7-0.7-1.1-0.9c-0.4-0.2-1-0.3-1.6-0.3c-0.6,0-1.2,0.1-1.7,0.3s-0.9,0.5-1.2,0.9c-0.3,0.4-0.6,0.8-0.8,1.3
			c-0.2,0.5-0.3,1-0.4,1.5H121.8z"/>
		<path d="M148.7,30.6c-1.8,0-3.3-0.3-4.7-0.8c-1.4-0.5-2.6-1.3-3.6-2.3c-1-1-1.7-2.3-2.2-3.8c-0.5-1.5-0.8-3.2-0.8-5.1
			c0-1.9,0.3-3.6,0.9-5.1c0.6-1.5,1.4-2.7,2.5-3.8c1-1,2.3-1.8,3.7-2.3c1.4-0.5,2.9-0.8,4.5-0.8c1,0,1.9,0.1,2.6,0.2
			c0.8,0.1,1.5,0.3,2.1,0.5s1.1,0.4,1.5,0.6s0.7,0.3,0.8,0.4l-1.3,3.4c-0.5-0.3-1.3-0.6-2.3-0.9s-2.1-0.4-3.3-0.4
			c-1,0-2,0.2-2.8,0.5c-0.9,0.3-1.6,0.9-2.3,1.5c-0.6,0.7-1.1,1.5-1.5,2.6c-0.4,1-0.5,2.2-0.5,3.6c0,1.2,0.1,2.3,0.4,3.4
			c0.3,1,0.7,1.9,1.3,2.6c0.6,0.7,1.3,1.3,2.2,1.7s2,0.6,3.3,0.6c1.5,0,2.7-0.1,3.7-0.4s1.7-0.6,2.2-0.8l1.2,3.4
			c-0.3,0.2-0.6,0.4-1.1,0.5c-0.5,0.2-1,0.3-1.6,0.5c-0.6,0.2-1.3,0.3-2.1,0.4C150.5,30.6,149.6,30.6,148.7,30.6z"/>
		<path d="M175.1,21.5c0,1.4-0.2,2.6-0.6,3.8c-0.4,1.1-1,2.1-1.7,2.9c-0.7,0.8-1.6,1.4-2.7,1.9s-2.2,0.7-3.5,0.7
			c-1.3,0-2.4-0.2-3.5-0.7c-1-0.4-1.9-1.1-2.7-1.9c-0.7-0.8-1.3-1.8-1.7-2.9s-0.6-2.4-0.6-3.8c0-1.4,0.2-2.6,0.6-3.7
			c0.4-1.1,1-2.1,1.8-2.9s1.7-1.4,2.7-1.8c1-0.4,2.2-0.6,3.4-0.6c1.2,0,2.4,0.2,3.4,0.6c1,0.4,1.9,1,2.7,1.8s1.3,1.8,1.7,2.9
			C174.9,18.8,175.1,20.1,175.1,21.5z M170.9,21.5c0-1.7-0.4-3.1-1.1-4.1c-0.8-1-1.8-1.5-3.2-1.5s-2.4,0.5-3.2,1.5s-1.1,2.4-1.1,4.1
			c0,1.7,0.4,3.1,1.1,4.1c0.8,1,1.8,1.5,3.2,1.5s2.4-0.5,3.2-1.5C170.5,24.6,170.9,23.2,170.9,21.5z"/>
		<path d="M179,13.3c0.8-0.2,1.8-0.4,3.1-0.6c1.3-0.2,2.7-0.3,4.2-0.3c1.4,0,2.7,0.2,3.6,0.6c1,0.4,1.7,0.9,2.3,1.6
			c0.6,0.7,1,1.5,1.2,2.5c0.2,1,0.4,2.1,0.4,3.2v9.8h-4.1V21c0-0.9-0.1-1.7-0.2-2.4c-0.1-0.7-0.3-1.2-0.6-1.6s-0.7-0.7-1.2-0.9
			c-0.5-0.2-1.1-0.3-1.8-0.3c-0.5,0-1.1,0-1.6,0.1s-1,0.1-1.3,0.2v14H179V13.3z"/>
		<path d="M198.2,8.2l4.1-0.7v5.2h6.3v3.4h-6.3v7.1c0,1.4,0.2,2.4,0.7,3c0.5,0.6,1.2,0.9,2.3,0.9c0.7,0,1.4-0.1,2-0.2
			c0.6-0.2,1-0.3,1.4-0.4l0.7,3.2c-0.5,0.2-1.1,0.4-1.9,0.6s-1.7,0.3-2.7,0.3c-1.3,0-2.3-0.2-3.2-0.5s-1.5-0.8-2-1.4
			c-0.5-0.6-0.8-1.4-1-2.3s-0.3-1.9-0.3-3.1V8.2z"/>
		<path d="M222.4,16.4c-0.3-0.1-0.8-0.2-1.4-0.3c-0.6-0.1-1.3-0.2-2.1-0.2c-0.5,0-0.9,0-1.4,0.1c-0.5,0.1-0.9,0.2-1.1,0.2v13.9h-4.1
			V13.6c0.8-0.3,1.8-0.6,3-0.8c1.2-0.3,2.5-0.4,3.9-0.4c0.3,0,0.6,0,0.9,0s0.7,0.1,1.1,0.1c0.4,0.1,0.7,0.1,1,0.2
			c0.3,0.1,0.6,0.1,0.8,0.2L222.4,16.4z"/>
		<path d="M241.6,21.5c0,1.4-0.2,2.6-0.6,3.8c-0.4,1.1-1,2.1-1.7,2.9c-0.7,0.8-1.6,1.4-2.7,1.9s-2.2,0.7-3.5,0.7
			c-1.3,0-2.4-0.2-3.5-0.7c-1-0.4-1.9-1.1-2.7-1.9c-0.7-0.8-1.3-1.8-1.7-2.9s-0.6-2.4-0.6-3.8c0-1.4,0.2-2.6,0.6-3.7
			c0.4-1.1,1-2.1,1.8-2.9s1.7-1.4,2.7-1.8c1-0.4,2.2-0.6,3.4-0.6c1.2,0,2.4,0.2,3.4,0.6c1,0.4,1.9,1,2.7,1.8s1.3,1.8,1.7,2.9
			C241.4,18.8,241.6,20.1,241.6,21.5z M237.4,21.5c0-1.7-0.4-3.1-1.1-4.1c-0.8-1-1.8-1.5-3.2-1.5s-2.4,0.5-3.2,1.5s-1.1,2.4-1.1,4.1
			c0,1.7,0.4,3.1,1.1,4.1c0.8,1,1.8,1.5,3.2,1.5s2.4-0.5,3.2-1.5C237.1,24.6,237.4,23.2,237.4,21.5z"/>
		<path d="M251.7,30.5c-1.2,0-2.2-0.2-3-0.4c-0.8-0.2-1.4-0.6-1.9-1c-0.5-0.5-0.8-1-1-1.7c-0.2-0.7-0.3-1.4-0.3-2.3v-20l4.1-0.7
			v19.9c0,0.5,0,0.9,0.1,1.2s0.2,0.6,0.4,0.8s0.5,0.4,0.8,0.5s0.8,0.2,1.3,0.3L251.7,30.5z"/>
	</g>
</g>
<g>
</g>
<g>
</g>
<g>
</g>
<g>
</g>
<g>
</g>
<g>
</g>
<g>
</g>
<g>
</g>
<g>
</g>
<g>
</g>
<g>
</g>
<g>
</g>
<g>
</g>
<g>
</g>
<g>
</g>
</svg>
